<svg id="artwork" xmlns="http://www.w3.org/2000/svg" xmlns:xlink="http://www.w3.org/1999/xlink" viewBox="0 0 115.85 27.31"><defs><style>.cls-1{fill:url(#linear-gradient);}.cls-2{fill:url(#linear-gradient-2);}.cls-3{fill:url(#linear-gradient-3);}.cls-4{fill:url(#linear-gradient-4);}.cls-5{opacity:0.2;}.cls-5,.cls-6,.cls-7{isolation:isolate;}.cls-6{opacity:0.12;}.cls-7{fill:#fff;opacity:0.25;}.cls-8{stroke:#fff;stroke-miterlimit:10;stroke-width:0.2px;}</style><linearGradient id="linear-gradient" x1="31.8" y1="183.29" x2="15.02" y2="166.51" gradientTransform="matrix(1, 0, 0, -1, 0, 202)" gradientUnits="userSpaceOnUse"><stop offset="0" stop-color="#00a0ff"/><stop offset="0.01" stop-color="#00a1ff"/><stop offset="0.26" stop-color="#00beff"/><stop offset="0.51" stop-color="#00d2ff"/><stop offset="0.76" stop-color="#00dfff"/><stop offset="1" stop-color="#00e3ff"/></linearGradient><linearGradient id="linear-gradient-2" x1="43.83" y1="172" x2="19.64" y2="172" gradientTransform="matrix(1, 0, 0, -1, 0, 202)" gradientUnits="userSpaceOnUse"><stop offset="0" stop-color="#ffe000"/><stop offset="0.41" stop-color="#ffbd00"/><stop offset="0.78" stop-color="orange"/><stop offset="1" stop-color="#ff9c00"/></linearGradient><linearGradient id="linear-gradient-3" x1="34.83" y1="169.7" x2="12.07" y2="146.95" gradientTransform="matrix(1, 0, 0, -1, 0, 202)" gradientUnits="userSpaceOnUse"><stop offset="0" stop-color="#ff3a44"/><stop offset="1" stop-color="#c31162"/></linearGradient><linearGradient id="linear-gradient-4" x1="17.3" y1="191.82" x2="27.46" y2="181.66" gradientTransform="matrix(1, 0, 0, -1, 0, 202)" gradientUnits="userSpaceOnUse"><stop offset="0" stop-color="#32a071"/><stop offset="0.07" stop-color="#2da771"/><stop offset="0.48" stop-color="#15cf74"/><stop offset="0.8" stop-color="#06e775"/><stop offset="1" stop-color="#00f076"/></linearGradient></defs><path d="M78.14,31.75A4.26,4.26,0,1,0,82.41,36,4.19,4.19,0,0,0,78.14,31.75Zm0,6.83A2.58,2.58,0,1,1,80.54,36,2.46,2.46,0,0,1,78.14,38.58Zm-9.32-6.83A4.26,4.26,0,1,0,73.09,36,4.19,4.19,0,0,0,68.82,31.75Zm0,6.83A2.58,2.58,0,1,1,71.22,36,2.46,2.46,0,0,1,68.82,38.58ZM57.74,33.06v1.8h4.32a3.77,3.77,0,0,1-1,2.27,4.42,4.42,0,0,1-3.34,1.32,4.8,4.8,0,0,1,0-9.6A4.64,4.64,0,0,1,61,30.14l1.27-1.27a6.3,6.3,0,0,0-4.53-1.82,6.61,6.61,0,1,0,0,13.21,6.07,6.07,0,0,0,4.61-1.85,6,6,0,0,0,1.56-4.23,6.27,6.27,0,0,0-.09-1.12Zm45.31,1.4a4,4,0,0,0-3.64-2.71,4,4,0,0,0-4,4.25,4.23,4.23,0,0,0,7.76,2.37l-1.45-1a2.41,2.41,0,0,1-2.09,1.17,2.15,2.15,0,0,1-2.06-1.29l5.69-2.35Zm-5.8,1.42a2.34,2.34,0,0,1,2.23-2.49,1.64,1.64,0,0,1,1.57.91ZM92.63,40H94.5V27.5H92.63Zm-3.06-7.3H89.5a2.94,2.94,0,0,0-2.24-1,4.26,4.26,0,0,0,0,8.51,2.88,2.88,0,0,0,2.24-1h.07v.61c0,1.63-.87,2.5-2.27,2.5a2.36,2.36,0,0,1-2.15-1.51l-1.62.67a4,4,0,0,0,3.77,2.52c2.19,0,4-1.29,4-4.43V32H89.57Zm-2.15,5.88a2.58,2.58,0,0,1,0-5.15A2.39,2.39,0,0,1,89.7,36,2.38,2.38,0,0,1,87.42,38.58ZM111.81,27.5h-4.48V40h1.87V35.26h2.61a3.89,3.89,0,1,0,0-7.76Zm0,6H109.2V29.24h2.65a2.14,2.14,0,1,1,0,4.28Zm11.54-1.79a3.49,3.49,0,0,0-3.33,1.91l1.65.69a1.78,1.78,0,0,1,1.71-.91,1.8,1.8,0,0,1,2,1.61v.12a4.18,4.18,0,0,0-1.95-.48c-1.78,0-3.6,1-3.6,2.82a2.89,2.89,0,0,0,3.11,2.75A2.65,2.65,0,0,0,125.32,39h.06v1h1.8V35.19C127.18,33,125.52,31.73,123.39,31.73Zm-.23,6.85c-.61,0-1.46-.31-1.46-1.06,0-1,1.06-1.34,2-1.34a3.32,3.32,0,0,1,1.7.42A2.26,2.26,0,0,1,123.16,38.58ZM133.74,32l-2.14,5.42h-.06L129.32,32h-2l3.33,7.58-1.9,4.21h1.95L135.82,32Zm-16.8,8h1.86V27.5h-1.86Z" transform="translate(-19.97 -16.77)"/><path class="cls-1" d="M20.44,17.54a2,2,0,0,0-.47,1.4V41.06a1.94,1.94,0,0,0,.47,1.4l.07.08L32.9,30.15v-.3L20.51,17.47Z" transform="translate(-19.97 -16.77)"/><path class="cls-2" d="M37,34.28,32.9,30.15v-.3L37,25.72l.09.06L42,28.56c1.4.79,1.4,2.09,0,2.89l-4.89,2.78Z" transform="translate(-19.97 -16.77)"/><path class="cls-3" d="M37.12,34.22,32.9,30,20.44,42.46a1.62,1.62,0,0,0,2.07.07l14.61-8.31" transform="translate(-19.97 -16.77)"/><path class="cls-4" d="M37.12,25.78l-14.61-8.3a1.61,1.61,0,0,0-2.07.06L32.9,30Z" transform="translate(-19.97 -16.77)"/><path class="cls-5" d="M37,34.13,22.51,42.38a1.66,1.66,0,0,1-2,0h0l-.07.07h0l.07.08h0a1.66,1.66,0,0,0,2,0l14.61-8.31Z" transform="translate(-19.97 -16.77)"/><path class="cls-6" d="M20.44,42.32A2,2,0,0,1,20,40.91v.15a1.94,1.94,0,0,0,.47,1.4l.07-.07Z" transform="translate(-19.97 -16.77)"/><path class="cls-6" d="M42,31.3l-5,2.83.09.09L42,31.44A1.75,1.75,0,0,0,43.06,30h0A1.86,1.86,0,0,1,42,31.3Z" transform="translate(-19.97 -16.77)"/><path class="cls-7" d="M22.51,17.62,42,28.7A1.86,1.86,0,0,1,43.06,30h0A1.75,1.75,0,0,0,42,28.56L22.51,17.48c-1.39-.8-2.54-.14-2.54,1.46v.15C20,17.49,21.12,16.83,22.51,17.62Z" transform="translate(-19.97 -16.77)"/><path class="cls-8" d="M52.11,24.27h-.73v-2H52A2.84,2.84,0,0,0,52.73,20V17h4v5.26h.67v2h-.74V23H52.11ZM53.5,20a4,4,0,0,1-.57,2.29h3V17.74H53.5Z" transform="translate(-19.97 -16.77)"/><path class="cls-8" d="M63.41,22.22a3.1,3.1,0,0,1-4.39,0,3.21,3.21,0,0,1,0-4.44,3.1,3.1,0,0,1,4.39,0A3.08,3.08,0,0,1,64.3,20,3,3,0,0,1,63.41,22.22Zm-3.83-.5a2.22,2.22,0,0,0,1.63.68,2.19,2.19,0,0,0,1.63-.68,2.54,2.54,0,0,0,0-3.44,2.19,2.19,0,0,0-1.63-.68,2.22,2.22,0,0,0-1.63.68,2.57,2.57,0,0,0,0,3.44Z" transform="translate(-19.97 -16.77)"/><path class="cls-8" d="M68.18,23.13A3,3,0,0,1,66,22.24a3.24,3.24,0,0,1,0-4.48,3,3,0,0,1,2.22-.89,2.75,2.75,0,0,1,2.2,1l-.53.52a2,2,0,0,0-1.67-.77,2.25,2.25,0,0,0-1.66.67,2.57,2.57,0,0,0,0,3.46,2.25,2.25,0,0,0,1.66.67A2.36,2.36,0,0,0,70,21.53l.54.53a3,3,0,0,1-1,.78A3.09,3.09,0,0,1,68.18,23.13Z" transform="translate(-19.97 -16.77)"/><path class="cls-8" d="M73.68,23h-.77V17.74H71.23V17h4.12v.74H73.68Z" transform="translate(-19.97 -16.77)"/><path class="cls-8" d="M80.65,17l-2.27,5.06a1.45,1.45,0,0,1-2,.94l.2-.71a.86.86,0,0,0,.4.11.72.72,0,0,0,.42-.11.91.91,0,0,0,.27-.38l.22-.48-2-4.43h.91l1.48,3.44h0L79.74,17Z" transform="translate(-19.97 -16.77)"/><path class="cls-8" d="M81.52,23V17h4.34v6h-.77V17.74h-2.8V23Z" transform="translate(-19.97 -16.77)"/><path class="cls-8" d="M87.23,23V17H88v2.57h3V17h.78v6H91V20.29H88V23Z" transform="translate(-19.97 -16.77)"/><path class="cls-8" d="M98.06,22.22a3.11,3.11,0,0,1-4.4,0,3.21,3.21,0,0,1,0-4.44,3.1,3.1,0,0,1,4.39,0,3.23,3.23,0,0,1,0,4.44Zm-3.83-.5a2.19,2.19,0,0,0,1.63.68,2.22,2.22,0,0,0,1.63-.68,2.57,2.57,0,0,0,0-3.44,2.22,2.22,0,0,0-1.63-.68,2.19,2.19,0,0,0-1.63.68,2.54,2.54,0,0,0,0,3.44Z" transform="translate(-19.97 -16.77)"/><path class="cls-8" d="M102.09,23V17h2.17a1.8,1.8,0,0,1,1.22.46,1.51,1.51,0,0,1,.52,1.17,1.38,1.38,0,0,1-.22.76,1.41,1.41,0,0,1-.59.49v0a1.57,1.57,0,0,1,.73.52,1.4,1.4,0,0,1,.28.85,1.57,1.57,0,0,1-.54,1.22,1.83,1.83,0,0,1-1.28.49Zm.77-3.43h1.4a.87.87,0,0,0,.7-.29.9.9,0,0,0,.27-.63A.93.93,0,0,0,105,18a.85.85,0,0,0-.67-.28h-1.44Zm0,2.69h1.56a.92.92,0,0,0,.72-.31,1,1,0,0,0,.27-.68,1,1,0,0,0-.28-.67,1,1,0,0,0-.75-.31h-1.52Z" transform="translate(-19.97 -16.77)"/></svg>