<svg style="fill-rule:evenodd;clip-rule:evenodd;stroke-linecap:round;stroke-linejoin:round;" xmlns:vectornator="http://vectornator.io" xmlns:xlink="http://www.w3.org/1999/xlink" xmlns="http://www.w3.org/2000/svg" xml:space="preserve" version="1.1" viewBox="0 0 512 512" width="35" height="35">
<metadata>
<vectornator:setting key="DynamicGuides" value="1"/>
<vectornator:setting key="Units" value="Points"/>
<vectornator:setting key="RulersVisible" value="1"/>
<vectornator:setting key="SnapToGuides" value="1"/>
<vectornator:setting key="GridSpacing" value="36"/>
</metadata>
<defs/>
<g id="Untitled" vectornator:layerName="Untitled">
<path d="M0.00175848+497.043C0.0277587+505.309+6.76174+512.001+15.0067+512.001L99.8677+512.001C103.847+512.001+107.662+510.42+110.476+507.606L296.26+321.823C355.018+340.845+419.798+325.584+463.743+281.638C528.086+217.295+528.086+112.601+463.743+48.2576C399.401-16.0844+294.708-16.0874+230.363+48.2576C186.417+92.2036+171.157+156.983+190.178+215.741L177.338+228.581L128.751+238.298C122.812+239.486+118.17+244.128+116.982+250.067L108.335+293.301L65.1007+301.948C59.1567+303.136+54.5117+307.786+53.3287+313.731L45.1237+354.977L15.0017+354.977C6.71674+354.977-0.000257195+361.694-0.00025792+369.979L-0.000269024+496.999C-0.000255674+497.014+0.00175848+497.028+0.00175848+497.043ZM30.0048+384.982L57.4358+384.982C64.5928+384.982+70.7528+379.926+72.1498+372.907L80.8038+329.406L124.027+320.761C129.966+319.573+134.608+314.931+135.796+308.992L144.443+265.758L187.676+257.111C190.58+256.53+193.248+255.103+195.342+253.008L218.102+230.248C222.316+226.034+223.637+219.725+221.466+214.175C201.894+164.137+213.715+107.339+251.58+69.4716C304.217+16.8356+389.875+16.8196+442.528+69.4716C495.172+122.117+495.172+207.776+442.528+260.42C404.601+298.346+347.787+310.076+297.825+290.534C292.273+288.363+285.966+289.683+281.752+293.898L93.6537+481.996L51.2207+481.996L237.775+295.443C243.634+289.584+243.634+280.086+237.775+274.227C234.846+271.298+231.006+269.832+227.167+269.832C223.328+269.832+219.488+271.296+216.559+274.227L30.0048+460.78L30.0048+384.982Z" opacity="1" fill="#2262aa"/>
<path d="M357.661+154.34C375.209+171.888+403.762+171.889+421.31+154.34C438.858+136.792+438.858+108.239+421.31+90.6906C403.763+73.1426+375.209+73.1416+357.661+90.6906C340.113+108.239+340.113+136.793+357.661+154.34ZM378.877+111.908C384.742+106.044+394.229+106.044+400.093+111.908C405.957+117.773+405.956+127.26+400.093+133.124C394.242+138.974+384.726+138.973+378.877+133.124C373.028+127.275+373.028+117.757+378.877+111.908Z" opacity="1" fill="#2262aa"/>
</g>
</svg>
