<svg xmlns="http://www.w3.org/2000/svg" xmlns:xlink="http://www.w3.org/1999/xlink" version="1.1" id="Capa_1" x="0px" y="0px" viewBox="0 0 511.548 511.548" style="enable-background:new 0 0 511.548 511.548;" xml:space="preserve" width="33" height="39">
<g>
	<path d="M405.561,181.48c-43.372-47.903-69.147-90.072-83.134-117.013c-15.148-29.181-20.112-47.276-20.15-47.42L297.768,0   l-16.104,7.183c-1.882,0.839-46.376,21.13-71.307,70.991c-12.515,25.031-15.018,52.9-14.913,71.87   c0.061,11.04-7.761,20.626-18.598,22.793c-7.598,1.518-15.414-0.844-20.898-6.328l-29.997-29.997l-10.319,14.229   c-1.071,1.477-26.289,36.256-30.88,43.205c-22.419,33.937-34.109,73.47-33.806,114.325c0.406,54.565,21.864,105.686,60.421,143.948   c38.555,38.259,89.84,59.329,144.408,59.329c112.945-0.001,204.832-91.888,204.832-204.833   C460.608,265.764,440.544,220.118,405.561,181.48z M255.776,481.548c-46.599,0-90.379-17.978-123.276-50.624   c-32.898-32.646-51.206-76.285-51.553-122.876c-0.26-34.878,9.712-68.616,28.837-97.565c2.335-3.534,11.702-16.602,19.833-27.879   l5.119,5.119c12.592,12.592,30.53,18.025,47.996,14.532c24.888-4.978,42.852-27.004,42.713-52.375   c-0.087-15.701,1.881-38.558,11.746-58.29c12.008-24.015,29.959-39.71,42.433-48.438c11.282,28.696,39.881,87.981,103.699,158.465   c14.217,15.702,47.285,57.376,47.285,105.099C430.608,403.118,352.178,481.548,255.776,481.548z" fill="#2262aa"/>
	<polygon points="286.177,254.503 192.117,392.247 225.372,392.247 319.432,254.503  " fill="#2262aa"/>
	<path d="M306.248,317.472c-20.858,0-36.601,13.971-36.601,38.372c0,24.597,15.742,38.371,36.601,38.371   s36.601-13.774,36.601-38.371C342.849,331.443,327.106,317.472,306.248,317.472z M306.248,372.963   c-4.329,0-8.658-3.936-8.658-17.12c0-13.184,4.329-17.12,8.658-17.12s8.658,3.936,8.658,17.12   C314.906,369.027,310.577,372.963,306.248,372.963z" fill="#2262aa"/>
	<path d="M241.902,290.907c0-24.4-15.742-38.371-36.601-38.371s-36.601,13.971-36.601,38.371c0,24.597,15.742,38.372,36.601,38.372   S241.902,315.504,241.902,290.907z M196.643,290.907c0-13.184,4.329-17.12,8.658-17.12c4.329,0,8.658,3.936,8.658,17.12   c0,13.184-4.329,17.12-8.658,17.12C200.972,308.027,196.643,304.091,196.643,290.907z" fill="#2262aa"/>
</g>
</svg>
