<svg id="Capa_1" enable-background="new 0 0 512 512" height="51" viewBox="0 0 512 512" width="49" xmlns="http://www.w3.org/2000/svg"><g id="XMLID_2171_"><g id="XMLID_2690_"><g id="XMLID_312_"><path id="XMLID_313_" d="m196 128c-2.63 0-5.21 1.069-7.07 2.93-1.86 1.86-2.93 4.44-2.93 7.07s1.07 5.21 2.93 7.069c1.86 1.86 4.44 2.931 7.07 2.931s5.21-1.07 7.07-2.931c1.86-1.859 2.93-4.439 2.93-7.069s-1.07-5.21-2.93-7.07-4.44-2.93-7.07-2.93z" fill="#2262aa"/><path id="XMLID_518_" d="m177.144 232.56c0-23.171-18.851-42.021-42.022-42.021-20.036 0-37.376 14.252-41.233 33.888-1.064 5.42 2.466 10.676 7.885 11.74 5.417 1.064 10.675-2.467 11.74-7.885 2.019-10.281 11.107-17.743 21.608-17.743 12.143 0 22.022 9.879 22.022 22.021 0 12.144-9.879 22.022-22.022 22.022-5.523 0-10 4.478-10 10s4.477 10 10 10c12.143 0 22.022 9.879 22.022 22.021s-9.879 22.021-22.022 22.021c-10.927 0-20.302-8.142-21.809-18.938-.141-1.014-.213-2.051-.213-3.084 0-5.522-4.477-10-10-10s-10 4.478-10 10c0 1.954.136 3.922.405 5.848 2.877 20.622 20.769 36.174 41.617 36.174 23.171 0 42.022-18.851 42.022-42.021 0-12.819-5.776-24.308-14.855-32.022 9.079-7.713 14.855-19.203 14.855-32.021z" fill="#2262aa"/><path id="XMLID_521_" d="m392 252.381v-162.381c0-27.57-22.43-50-50-50h-26v-8c0-17.645-14.355-32-32-32s-32 14.355-32 32v8h-112v-8c0-17.645-14.355-32-32-32s-32 14.355-32 32v8h-26c-27.57 0-50 22.43-50 50v280.893c0 27.57 22.43 50 50 50h207.945c16.571 52.742 65.916 91.107 124.055 91.107 71.682 0 130-58.317 130-130 0-68.318-52.972-124.496-120-129.619zm-120-220.381c0-6.617 5.383-12 12-12s12 5.383 12 12v36c0 6.617-5.383 12-12 12s-12-5.383-12-12zm-164-12c6.617 0 12 5.383 12 12v36c0 6.617-5.383 12-12 12s-12-5.383-12-12v-36c0-6.617 5.383-12 12-12zm-58 380.893c-16.542 0-30-13.458-30-30v-222.893h131c5.523 0 10-4.478 10-10s-4.477-10-10-10h-131v-38c0-16.542 13.458-30 30-30h26v8c0 17.645 14.355 32 32 32s32-14.355 32-32v-8h112v8c0 17.645 14.355 32 32 32s32-14.355 32-32v-8h26c16.542 0 30 13.458 30 30v38h-131c-5.523 0-10 4.478-10 10s4.477 10 10 10h131v104.381c-27.678 2.115-52.956 12.941-73.1 29.727v-45.983c0-25.137-20.451-45.587-45.587-45.587s-45.587 20.45-45.587 45.587v56.913c0 25.137 20.45 45.587 45.587 45.587 2.136 0 4.236-.159 6.295-.445-4.92 13.698-7.608 28.45-7.608 43.82 0 6.416.475 12.723 1.377 18.893zm203.313-82.268c-14.109 0-25.587-11.479-25.587-25.587v-56.913c0-14.108 11.478-25.587 25.587-25.587s25.587 11.479 25.587 25.587v56.913c0 14.108-11.479 25.587-25.587 25.587zm128.687 173.375c-60.654 0-110-49.346-110-110s49.346-110 110-110 110 49.346 110 110-49.346 110-110 110z" fill="#2262aa"/><path id="XMLID_528_" d="m398.245 371.853c-2.055-.726-4.149-1.481-6.245-2.261v-38.935c5.235 1.745 8.672 4.186 8.841 4.307 4.399 3.29 10.636 2.415 13.958-1.97 3.335-4.402 2.47-10.675-1.932-14.01-.53-.401-8.742-6.494-20.868-9.01v-8.2c0-5.522-4.477-10-10-10s-10 4.478-10 10v8.134c-1.306.273-2.625.597-3.961.998-13.059 3.923-22.818 15.079-25.468 29.115-2.426 12.846 1.711 25.254 10.798 32.38 4.726 3.707 10.593 7.092 18.631 10.664v50.692c-6.673-.545-10.999-2.234-18.302-7.011-4.623-3.026-10.82-1.728-13.843 2.894s-1.728 10.82 2.895 13.843c11.418 7.469 19.234 9.736 29.25 10.329v8.415c0 5.522 4.477 10 10 10s10-4.478 10-10v-9.551c18.613-4.582 30.549-20.419 33.174-36.034 3.401-20.224-7.169-37.804-26.928-44.789zm-32.534-15.188c-3.138-2.461-4.507-7.537-3.488-12.933.898-4.758 3.938-10.426 9.776-12.997v30.031c-2.35-1.319-4.482-2.685-6.288-4.101zm39.74 56.659c-1.184 7.043-5.746 14.487-13.451 18.224v-40.678c15.031 5.563 14.104 18.569 13.451 22.454z" fill="#2262aa"/></g></g></g></svg>